<svg id="soft-svg" width="167" height="103" viewBox="0 0 167 103" fill="none" xmlns="http://www.w3.org/2000/svg">
<style>
    @keyframes bounces {
      0%, 25%, 50%, 75%, 100% {
        transform: translateY(0);
      }
      40% {
        transform: translateY(-20px);
      }
      60% {
        transform: translateY(-12px);
      }
    }

    #bounce {
       animation: bounces 2s infinite;
    }

  </style>



<path id="bounce" d="M80.9393 65.0607C81.5251 65.6464 82.4749 65.6464 83.0607 65.0607L92.6066 55.5147C93.1924 54.9289 93.1924 53.9792 92.6066 53.3934C92.0208 52.8076 91.0711 52.8076 90.4853 53.3934L82 61.8787L73.5147 53.3934C72.9289 52.8076 71.9792 52.8076 71.3934 53.3934C70.8076 53.9792 70.8076 54.9289 71.3934 55.5147L80.9393 65.0607ZM80.5 -6.55671e-08L80.5 64L83.5 64L83.5 6.55671e-08L80.5 -6.55671e-08Z" fill="#8B59C1"/>
<path d="M15.4453 87.2695C15.4453 89.1836 15.1055 90.7891 14.4258 92.0859C13.7539 93.3828 12.7539 94.3594 11.4258 95.0156C10.1055 95.6719 8.46875 96 6.51562 96H2.41406V78.8672H7.05469C8.88281 78.8672 10.418 79.1875 11.6602 79.8281C12.9023 80.4688 13.8438 81.4141 14.4844 82.6641C15.125 83.9062 15.4453 85.4414 15.4453 87.2695ZM14.1797 87.3164C14.1797 85.6836 13.9141 84.3203 13.3828 83.2266C12.8516 82.1328 12.0391 81.3125 10.9453 80.7656C9.85156 80.2109 8.46484 79.9336 6.78516 79.9336H3.62109V94.9336H6.45703C9.04297 94.9336 10.9766 94.3008 12.2578 93.0352C13.5391 91.7617 14.1797 89.8555 14.1797 87.3164ZM28.7227 96H19.3594V78.8672H28.7227V79.957H20.5664V86.4492H28.2656V87.5391H20.5664V94.9102H28.7227V96ZM41.9883 96H32.625V78.8672H41.9883V79.957H33.832V86.4492H41.5312V87.5391H33.832V94.9102H41.9883V96ZM50.0977 78.8672C52.1367 78.8672 53.6641 79.2578 54.6797 80.0391C55.6953 80.8203 56.2031 82.0352 56.2031 83.6836C56.2031 84.5273 56.0664 85.2773 55.793 85.9336C55.5273 86.582 55.125 87.1289 54.5859 87.5742C54.0469 88.0195 53.3711 88.3555 52.5586 88.582C51.7539 88.8086 50.8125 88.9219 49.7344 88.9219H47.0977V96H45.8906V78.8672H50.0977ZM49.9688 79.9336H47.0977V87.8555H49.6172C50.7266 87.8555 51.6797 87.7305 52.4766 87.4805C53.2734 87.2227 53.8867 86.793 54.3164 86.1914C54.7461 85.5898 54.9609 84.7695 54.9609 83.7305C54.9609 82.4102 54.5547 81.4492 53.7422 80.8477C52.9297 80.2383 51.6719 79.9336 49.9688 79.9336ZM70.6406 96H69.4219V79.957H63.8672V78.8672H76.1953V79.957H70.6406V96ZM93.1641 87.4102C93.1641 88.7148 93.0039 89.9062 92.6836 90.9844C92.3633 92.0625 91.8828 92.9922 91.2422 93.7734C90.6016 94.5547 89.8008 95.1602 88.8398 95.5898C87.8867 96.0195 86.7734 96.2344 85.5 96.2344C84.2188 96.2344 83.0977 96.0195 82.1367 95.5898C81.1758 95.1602 80.375 94.5547 79.7344 93.7734C79.1016 92.9844 78.625 92.0508 78.3047 90.9727C77.9844 89.8867 77.8242 88.6914 77.8242 87.3867C77.8242 85.6523 78.1172 84.125 78.7031 82.8047C79.2969 81.4844 80.168 80.4531 81.3164 79.7109C82.4727 78.9688 83.8984 78.5977 85.5938 78.5977C87.2188 78.5977 88.5938 78.9531 89.7188 79.6641C90.8516 80.3672 91.707 81.3789 92.2852 82.6992C92.8711 84.0117 93.1641 85.582 93.1641 87.4102ZM79.0898 87.3984C79.0898 88.9297 79.3203 90.2812 79.7812 91.4531C80.2422 92.6172 80.9492 93.5273 81.9023 94.1836C82.8555 94.8398 84.0586 95.168 85.5117 95.168C86.9805 95.168 88.1875 94.8438 89.1328 94.1953C90.0781 93.5469 90.7773 92.6406 91.2305 91.4766C91.6836 90.3125 91.9102 88.957 91.9102 87.4102C91.9102 84.9648 91.375 83.0664 90.3047 81.7148C89.2422 80.3633 87.6719 79.6875 85.5938 79.6875C84.1328 79.6875 82.918 80.0117 81.9492 80.6602C80.9883 81.3086 80.2695 82.2109 79.793 83.3672C79.3242 84.5234 79.0898 85.8672 79.0898 87.3984ZM101.262 78.8672C102.621 78.8672 103.754 79.0156 104.66 79.3125C105.574 79.6094 106.262 80.0977 106.723 80.7773C107.184 81.457 107.414 82.375 107.414 83.5312C107.414 84.3984 107.254 85.1445 106.934 85.7695C106.621 86.3867 106.188 86.8945 105.633 87.293C105.078 87.6914 104.438 87.9961 103.711 88.207L108.41 96H106.98L102.562 88.5469H98.3086V96H97.1016V78.8672H101.262ZM101.145 79.9336H98.3086V87.4805H101.719C103.117 87.4805 104.207 87.1445 104.988 86.4727C105.777 85.8008 106.172 84.8359 106.172 83.5781C106.172 82.1953 105.758 81.2422 104.93 80.7188C104.102 80.1953 102.84 79.9336 101.145 79.9336ZM115.535 78.8672C116.895 78.8672 118.027 79.0156 118.934 79.3125C119.848 79.6094 120.535 80.0977 120.996 80.7773C121.457 81.457 121.688 82.375 121.688 83.5312C121.688 84.3984 121.527 85.1445 121.207 85.7695C120.895 86.3867 120.461 86.8945 119.906 87.293C119.352 87.6914 118.711 87.9961 117.984 88.207L122.684 96H121.254L116.836 88.5469H112.582V96H111.375V78.8672H115.535ZM115.418 79.9336H112.582V87.4805H115.992C117.391 87.4805 118.48 87.1445 119.262 86.4727C120.051 85.8008 120.445 84.8359 120.445 83.5781C120.445 82.1953 120.031 81.2422 119.203 80.7188C118.375 80.1953 117.113 79.9336 115.418 79.9336ZM135.012 96H125.648V78.8672H135.012V79.957H126.855V86.4492H134.555V87.5391H126.855V94.9102H135.012V96ZM151.383 96H150.152L140.027 80.8477H139.969C139.984 81.2695 139.996 81.6992 140.004 82.1367C140.02 82.5664 140.031 83.0117 140.039 83.4727C140.055 83.9258 140.062 84.3945 140.062 84.8789V96H138.914V78.8672H140.156L150.246 93.9727H150.305C150.297 93.6289 150.285 93.2305 150.27 92.7773C150.262 92.3242 150.25 91.8594 150.234 91.3828C150.227 90.9062 150.223 90.457 150.223 90.0352V78.8672H151.383V96ZM160.711 96H159.492V79.957H153.938V78.8672H166.266V79.957H160.711V96Z" fill="#925CC9"/>
</svg>
